<?xml version="1.0" encoding="UTF-8" ?>
<!DOCTYPE svg PUBLIC "-//W3C//DTD SVG 1.1//EN" "http://www.w3.org/Graphics/SVG/1.1/DTD/svg11.dtd">
<svg width="850pt" height="850pt" viewBox="0 0 850 850" version="1.1" xmlns="http://www.w3.org/2000/svg">
<g id="#ffffffff">
<path fill="#ffffff" opacity="1.00" d=" M 430.23 348.96 C 429.91 346.11 431.96 342.95 435.01 342.90 C 441.02 342.61 447.05 342.78 453.07 342.79 C 455.46 342.68 457.85 343.74 459.16 345.78 C 459.95 349.32 459.43 353.01 459.62 356.62 L 458.82 356.61 C 454.12 356.55 449.42 356.53 444.73 356.58 C 444.58 364.44 444.58 372.31 444.67 380.17 C 439.88 380.32 435.08 380.30 430.29 380.07 C 430.32 369.70 430.26 359.33 430.23 348.96 Z" />
<path fill="#ffffff" opacity="1.00" d=" M 545.53 343.64 C 551.99 342.79 558.57 343.51 565.08 343.32 C 568.36 342.91 572.26 345.32 571.82 348.97 C 571.77 359.70 571.75 370.43 571.77 381.16 C 567.14 381.35 562.50 381.37 557.88 380.98 C 557.65 373.10 557.67 365.22 557.63 357.34 C 553.50 357.31 549.36 357.24 545.23 357.34 C 544.64 357.34 543.47 357.34 542.88 357.34 C 543.06 352.84 540.82 346.51 545.53 343.64 Z" />
</g>
<g id="#060a08ff">
<path fill="#060a08" opacity="1.00" d=" M 423.29 46.80 C 444.95 46.62 466.62 46.77 488.28 46.84 C 488.37 50.92 488.44 55.02 488.06 59.10 C 466.44 59.36 444.81 59.30 423.19 59.05 C 423.30 54.97 423.30 50.88 423.29 46.80 Z" />
<path fill="#060a08" opacity="1.00" d=" M 367.24 59.86 C 385.88 59.76 404.51 59.75 423.14 59.93 C 422.91 64.17 422.80 68.42 422.70 72.66 C 409.80 72.67 396.90 72.65 384.00 72.63 C 378.42 72.69 372.74 72.01 367.26 73.28 C 366.24 77.36 366.53 81.60 366.56 85.76 C 348.68 86.11 330.78 85.18 312.92 86.02 C 312.66 81.65 312.74 77.27 312.87 72.89 C 330.88 72.38 348.91 73.77 366.91 72.83 C 367.17 68.51 367.23 64.19 367.24 59.86 Z" />
<path fill="#060a08" opacity="1.00" d=" M 257.71 86.18 C 275.83 86.07 293.97 86.56 312.08 86.08 C 312.27 90.44 312.28 94.80 312.20 99.16 C 294.09 99.62 275.97 99.12 257.87 99.11 C 257.36 94.82 257.53 90.49 257.71 86.18 Z" />
<path fill="#060a08" opacity="1.00" d=" M 203.12 99.64 C 221.10 99.65 239.11 99.38 257.07 99.95 C 256.96 104.19 257.03 108.44 256.94 112.68 C 246.29 112.73 235.65 112.59 225.00 112.64 C 217.68 112.68 210.33 112.28 203.04 113.07 C 202.55 117.31 202.71 121.60 202.59 125.86 C 183.39 126.28 164.18 125.70 144.98 126.22 C 144.75 121.88 144.85 117.54 145.06 113.20 C 164.33 113.11 183.62 113.52 202.88 113.03 C 203.16 108.57 203.09 104.10 203.12 99.64 Z" />
<path fill="#060a08" opacity="1.00" d=" M 118.78 126.32 C 127.24 126.38 135.71 126.56 144.17 126.25 C 144.37 130.55 144.37 134.86 144.26 139.16 C 135.83 139.65 127.40 139.19 118.97 139.21 C 118.47 134.93 118.57 130.61 118.78 126.32 Z" />
<path fill="#060a08" opacity="1.00" d=" M 104.31 139.82 C 108.86 139.66 113.43 139.58 117.98 139.95 C 117.84 143.97 117.92 147.99 117.72 152.01 C 113.18 152.20 108.63 152.20 104.10 151.96 C 104.31 147.92 104.32 143.87 104.31 139.82 Z" />
<path fill="#060a08" opacity="1.00" d=" M 91.15 152.64 C 95.45 152.46 99.75 152.38 104.03 152.79 C 103.25 168.84 103.89 184.93 103.69 201.00 C 103.87 212.69 103.26 224.41 104.13 236.08 C 99.81 236.51 95.47 236.41 91.14 236.26 C 91.19 208.38 91.14 180.51 91.15 152.64 Z" />
<path fill="#060a08" opacity="1.00" d=" M 515.06 167.37 C 519.32 167.46 523.57 167.46 527.84 167.37 C 528.03 186.28 528.23 205.19 528.18 224.11 C 532.52 224.20 536.86 224.21 541.20 224.17 C 541.46 236.72 541.15 249.28 541.34 261.83 L 541.42 262.67 C 548.70 262.86 555.99 262.43 563.26 262.90 C 563.45 266.67 563.50 270.44 563.36 274.22 C 535.91 274.58 508.45 274.11 481.00 273.99 C 462.46 273.74 443.92 274.00 425.39 273.57 C 425.10 265.72 425.29 257.86 425.26 250.00 C 429.42 249.78 433.58 249.76 437.73 249.84 C 437.84 253.62 437.96 257.40 438.08 261.17 C 452.33 261.64 466.60 261.33 480.86 261.35 C 492.10 261.47 503.35 261.16 514.59 261.55 C 519.12 261.77 523.65 261.85 528.19 261.87 C 528.51 249.22 528.57 236.55 528.10 223.90 C 523.78 223.69 519.45 223.63 515.13 223.83 C 515.54 215.22 515.36 206.61 515.37 198.00 C 515.25 187.79 515.63 177.57 515.06 167.37 Z" />
<path fill="#060a08" opacity="1.00" d=" M 357.27 223.82 C 368.17 223.30 379.09 223.72 390.00 223.62 C 397.01 223.70 404.05 223.22 411.05 223.93 C 411.27 227.94 411.31 231.96 411.24 235.98 C 399.17 236.70 387.08 236.03 375.00 236.33 C 369.00 236.51 362.98 236.41 357.05 235.41 C 357.03 231.54 357.15 227.68 357.27 223.82 Z" />
<path fill="#060a08" opacity="1.00" d=" M 104.19 236.80 C 108.31 236.44 112.45 236.39 116.59 236.36 C 117.10 245.48 116.74 254.61 117.08 263.73 C 116.60 274.19 116.52 284.67 117.05 295.13 C 112.77 295.28 108.49 295.26 104.21 295.14 C 104.35 275.70 104.38 256.25 104.19 236.80 Z" />
<path fill="#060a08" opacity="1.00" d=" M 343.34 236.37 C 347.91 236.31 352.48 236.27 357.06 236.32 C 357.29 242.48 357.40 248.65 357.04 254.81 C 352.43 254.91 347.81 255.03 343.20 255.13 C 343.02 271.71 342.92 288.29 343.14 304.87 C 338.53 304.81 333.92 304.76 329.32 304.68 C 329.25 287.92 329.38 271.16 329.35 254.40 C 333.95 254.39 338.55 254.34 343.14 254.22 C 343.31 248.27 343.36 242.32 343.34 236.37 Z" />
<path fill="#060a08" opacity="1.00" d=" M 411.95 236.81 C 416.28 236.69 420.62 236.70 424.95 236.82 C 425.08 240.92 425.20 245.02 425.26 249.12 C 420.90 249.60 416.51 249.77 412.13 249.83 C 412.00 245.49 411.91 241.15 411.95 236.81 Z" />
<path fill="#060a08" opacity="1.00" d=" M 575.63 236.85 C 592.61 236.89 609.59 236.62 626.57 237.04 C 626.50 241.33 626.51 245.62 626.68 249.91 C 631.20 249.93 635.73 249.93 640.26 249.94 C 640.31 258.27 640.45 266.61 640.24 274.94 C 635.91 275.12 631.58 275.08 627.25 274.94 C 626.82 266.78 628.44 258.45 626.58 250.41 C 622.81 249.36 618.86 249.53 615.00 249.56 C 601.93 249.90 588.85 249.41 575.79 249.84 C 575.35 245.52 575.44 241.18 575.63 236.85 Z" />
<path fill="#060a08" opacity="1.00" d=" M 563.81 249.97 C 567.53 249.93 571.25 249.92 574.97 249.86 C 575.18 254.23 575.17 258.61 575.07 262.99 C 571.24 262.87 567.41 262.69 563.60 262.42 C 563.62 258.27 563.69 254.12 563.81 249.97 Z" />
<path fill="#060a08" opacity="1.00" d=" M 641.14 274.90 C 645.41 274.80 649.70 274.81 653.98 274.85 C 654.11 292.35 654.03 309.84 654.03 327.33 C 649.68 327.42 645.33 327.44 640.99 327.25 C 640.91 309.80 640.70 292.35 641.14 274.90 Z" />
<path fill="#060a08" opacity="1.00" d=" M 343.80 304.83 C 348.20 304.66 352.61 304.67 357.02 304.85 C 357.00 309.54 356.80 314.23 356.17 318.89 C 352.13 318.99 348.08 319.06 344.05 318.76 C 343.65 314.12 343.62 309.47 343.80 304.83 Z" />
<path fill="#060a08" opacity="1.00" d=" M 357.06 318.86 C 361.29 318.70 365.54 318.73 369.78 318.86 C 369.88 326.93 369.84 334.99 369.71 343.06 C 365.47 343.25 361.23 343.35 356.98 343.32 C 357.00 336.79 356.70 330.27 356.80 323.74 C 356.86 322.11 356.96 320.48 357.06 318.86 Z" />
<path fill="#060a08" opacity="1.00" d=" M 627.92 327.20 C 631.95 327.11 636.00 327.07 640.04 327.22 C 640.13 340.45 639.91 353.68 640.17 366.91 C 640.29 371.53 640.24 376.16 640.09 380.78 C 639.92 385.78 639.89 390.80 639.94 395.81 C 639.99 405.10 640.22 414.40 639.86 423.68 C 636.12 423.82 632.38 423.96 628.65 423.99 C 627.72 419.05 627.43 414.01 627.57 409.00 C 627.97 381.73 627.22 354.45 627.92 327.20 Z" />
<path fill="#060a08" opacity="1.00" d=" M 119.29 333.96 C 123.29 334.05 127.29 334.11 131.29 334.13 C 132.15 352.09 131.40 370.10 131.58 388.08 C 131.69 389.56 131.71 391.15 132.48 392.48 C 136.47 393.47 140.62 393.25 144.69 393.30 C 144.95 403.79 144.24 414.29 145.07 424.77 C 149.21 424.83 153.35 424.87 157.49 424.86 C 157.51 425.35 157.55 426.32 157.58 426.81 C 157.69 485.21 157.60 543.60 157.63 602.00 C 157.79 627.60 157.24 653.22 157.92 678.81 C 153.56 678.66 149.20 678.68 144.85 678.70 C 144.95 594.08 144.81 509.47 145.03 424.85 C 140.62 424.83 136.21 424.85 131.80 424.83 C 131.84 414.15 131.91 403.46 131.85 392.78 C 127.64 392.75 123.43 392.74 119.22 392.76 C 119.29 373.16 119.32 353.56 119.29 333.96 Z" />
<path fill="#060a08" opacity="1.00" d=" M 342.96 343.26 C 344.56 343.26 346.17 343.27 347.79 343.31 C 350.48 343.42 353.17 343.70 355.85 343.95 C 356.25 364.36 355.58 384.78 356.10 405.19 C 351.68 405.33 347.26 405.31 342.85 405.18 C 342.36 395.46 342.74 385.73 342.70 376.01 C 342.85 365.09 342.23 354.16 342.96 343.26 Z" />
<path fill="#060a08" opacity="1.00" d=" M 444.73 356.58 C 449.42 356.53 454.12 356.55 458.82 356.61 C 459.67 364.36 459.58 372.18 458.92 379.94 C 454.17 380.13 449.42 380.17 444.67 380.17 C 444.58 372.31 444.58 364.44 444.73 356.58 Z" />
<path fill="#060a08" opacity="1.00" d=" M 545.23 357.34 C 549.36 357.24 553.50 357.31 557.63 357.34 C 557.67 365.22 557.65 373.10 557.88 380.98 C 553.01 380.81 548.13 380.76 543.26 380.71 C 543.18 375.77 543.11 370.84 543.02 365.90 C 542.96 363.11 542.90 360.31 542.83 357.51 C 543.43 357.47 544.63 357.38 545.23 357.34 Z" />
<path fill="#060a08" opacity="1.00" d=" M 475.06 380.25 C 492.72 380.31 510.38 380.44 528.04 380.35 C 528.67 388.60 528.43 396.89 528.19 405.15 C 523.81 405.26 519.42 405.31 515.04 405.30 C 514.87 409.94 514.81 414.58 514.81 419.22 C 506.24 419.58 497.66 419.50 489.10 419.17 C 489.11 414.45 489.13 409.73 489.12 405.01 C 484.40 405.03 479.68 405.03 474.96 404.99 C 474.75 396.74 474.76 388.49 475.06 380.25 Z" />
<path fill="#060a08" opacity="1.00" d=" M 356.94 405.25 C 361.13 405.12 365.33 405.17 369.52 405.43 C 369.14 415.65 369.65 425.88 369.21 436.09 C 365.10 436.40 360.98 436.42 356.88 436.19 C 356.54 425.88 356.43 415.55 356.94 405.25 Z" />
<path fill="#060a08" opacity="1.00" d=" M 613.16 424.09 C 617.77 423.96 622.38 423.94 626.99 423.99 C 627.21 428.29 627.21 432.59 627.10 436.90 C 622.40 437.09 617.70 437.18 613.00 437.12 C 612.94 432.78 613.04 428.43 613.16 424.09 Z" />
<path fill="#060a08" opacity="1.00" d=" M 369.92 436.25 C 374.43 436.14 378.94 436.21 383.45 436.49 C 383.75 442.00 383.80 447.52 383.64 453.03 C 379.05 453.83 374.37 453.89 369.76 453.27 C 369.51 447.59 369.50 441.91 369.92 436.25 Z" />
<path fill="#060a08" opacity="1.00" d=" M 749.09 439.08 C 753.25 439.21 757.42 439.19 761.60 439.22 C 761.42 492.76 761.48 546.30 761.62 599.83 C 757.33 599.89 753.05 600.00 748.77 600.13 C 748.61 635.64 748.76 671.14 748.67 706.65 C 744.49 706.65 740.30 706.69 736.12 706.74 C 736.12 711.12 736.10 715.50 735.95 719.88 C 732.27 719.86 728.58 719.86 724.91 720.05 C 724.70 715.84 724.71 711.62 724.86 707.42 C 728.54 707.22 732.22 707.01 735.90 706.79 C 736.57 694.54 735.94 682.26 736.13 670.00 C 736.23 646.82 735.97 623.64 736.22 600.46 C 740.39 600.37 744.55 600.21 748.72 599.95 C 748.60 567.30 748.66 534.65 748.67 502.00 C 748.80 481.03 748.29 460.04 749.09 439.08 Z" />
<path fill="#060a08" opacity="1.00" d=" M 599.21 446.26 C 603.48 446.20 607.75 446.21 612.03 446.29 C 612.18 449.64 612.33 452.99 612.52 456.34 C 607.94 456.37 603.37 456.31 598.81 456.08 C 598.86 452.80 599.04 449.53 599.21 446.26 Z" />
<path fill="#060a08" opacity="1.00" d=" M 357.19 453.41 C 357.62 453.41 358.47 453.39 358.90 453.38 C 362.51 453.50 366.12 453.75 369.72 454.00 C 369.82 458.88 369.76 463.76 369.56 468.63 C 365.33 468.77 361.11 468.82 356.88 468.79 C 356.53 463.66 356.50 458.51 357.19 453.41 Z" />
<path fill="#060a08" opacity="1.00" d=" M 383.87 453.84 C 388.62 453.54 393.39 453.54 398.14 453.84 C 398.46 458.55 398.46 463.29 398.12 468.00 C 393.37 468.25 388.62 468.27 383.88 468.05 C 383.55 463.32 383.55 458.57 383.87 453.84 Z" />
<path fill="#060a08" opacity="1.00" d=" M 584.99 457.84 C 589.59 457.66 594.20 457.65 598.80 457.91 C 598.82 460.81 598.94 463.72 599.05 466.62 C 603.62 466.66 608.18 466.78 612.75 466.96 C 612.77 470.68 612.77 474.40 612.75 478.12 C 608.20 478.33 603.64 478.44 599.08 478.38 C 599.01 474.68 598.90 470.99 598.78 467.30 C 594.20 467.14 589.62 466.99 585.05 466.86 C 585.02 463.85 585.00 460.84 584.99 457.84 Z" />
<path fill="#060a08" opacity="1.00" d=" M 401.35 467.38 C 408.42 467.24 415.49 467.23 422.56 467.38 C 422.63 471.95 422.76 476.53 422.92 481.10 C 428.16 481.29 433.41 481.39 438.66 481.40 C 438.77 486.12 438.77 490.85 438.66 495.58 C 433.79 495.61 428.92 495.73 424.06 495.94 C 423.52 501.25 422.98 506.56 422.43 511.87 C 418.93 511.99 415.42 512.07 411.92 512.12 C 411.58 517.41 411.55 522.72 411.85 528.02 C 402.65 527.90 393.44 527.68 384.25 528.36 C 382.86 521.10 383.16 513.69 383.39 506.35 C 389.28 506.40 395.17 506.32 401.06 506.12 C 401.21 502.21 401.35 498.29 401.46 494.38 C 406.04 494.31 410.63 494.20 415.22 494.07 C 415.33 490.01 415.34 485.96 415.23 481.91 C 410.60 481.75 405.97 481.63 401.34 481.58 C 401.22 476.84 401.22 472.11 401.35 467.38 Z" />
<path fill="#060a08" opacity="1.00" d=" M 342.67 468.70 C 347.21 468.65 351.75 468.69 356.30 468.84 C 356.40 473.96 356.33 479.09 356.14 484.22 C 351.71 484.38 347.28 484.38 342.86 484.20 C 342.65 479.04 342.58 473.87 342.67 468.70 Z" />
<path fill="#060a08" opacity="1.00" d=" M 329.30 484.30 C 331.44 484.30 333.59 484.30 335.74 484.33 C 337.84 484.45 339.92 484.68 342.01 484.91 C 342.61 494.09 342.48 503.29 342.13 512.47 C 340.45 512.34 338.78 512.22 337.10 512.12 C 334.63 511.97 332.15 511.89 329.68 511.85 C 328.77 502.69 329.12 493.48 329.30 484.30 Z" />
<path fill="#060a08" opacity="1.00" d=" M 613.31 525.11 C 622.22 524.95 631.12 525.03 640.03 525.10 C 640.24 542.07 640.17 559.05 640.06 576.02 C 635.48 576.01 630.91 576.04 626.35 576.14 C 626.39 580.17 626.38 584.20 626.29 588.23 C 621.84 588.35 617.39 588.39 612.95 588.33 C 612.35 596.95 612.89 605.58 612.82 614.21 C 608.01 614.40 603.19 614.42 598.37 614.33 C 598.44 618.64 598.41 622.95 598.27 627.26 C 593.27 627.42 588.27 627.42 583.28 627.31 C 583.14 635.47 583.53 643.64 583.14 651.81 C 578.06 651.75 572.99 651.74 567.93 651.81 C 567.67 659.93 568.01 668.05 567.92 676.17 C 562.95 676.32 557.98 676.33 553.01 676.26 C 552.73 681.07 552.75 685.89 553.08 690.70 C 563.36 690.69 573.64 690.69 583.92 690.76 C 583.99 685.94 584.07 681.12 584.14 676.30 C 602.72 676.35 621.30 676.41 639.88 676.31 C 640.31 685.94 640.25 695.59 640.08 705.24 C 631.03 705.59 621.99 705.28 612.94 705.31 C 612.79 708.95 612.73 712.59 612.70 716.24 C 597.89 716.65 583.07 716.34 568.26 716.34 C 568.18 719.95 568.13 723.57 568.07 727.19 C 554.82 727.49 541.57 727.20 528.33 727.29 C 528.29 730.93 528.23 734.57 528.15 738.21 C 515.17 738.32 502.19 738.37 489.23 738.04 C 489.13 725.41 489.20 712.78 489.22 700.15 C 494.38 700.11 499.55 700.06 504.72 699.91 C 504.74 692.02 504.43 684.13 504.92 676.25 C 510.23 676.35 515.55 676.38 520.87 676.22 C 520.89 668.12 520.60 660.03 520.88 651.94 C 526.33 651.88 531.77 651.91 537.21 651.97 C 537.51 643.75 537.17 635.53 537.30 627.30 C 542.86 627.41 548.43 627.44 554.00 627.27 C 554.18 618.91 553.78 610.55 554.11 602.20 C 559.71 602.29 565.32 602.32 570.92 602.17 C 570.81 593.49 570.80 584.81 570.84 576.14 C 564.87 576.02 558.90 576.00 552.93 576.10 C 552.86 580.12 552.83 584.15 552.82 588.18 C 541.91 588.54 530.99 588.22 520.07 588.27 C 519.97 592.10 519.90 595.94 519.84 599.79 C 509.65 599.75 499.46 599.79 489.27 599.72 C 489.07 587.06 489.07 574.40 489.17 561.75 C 499.66 561.30 510.17 561.65 520.67 561.66 C 520.68 557.44 520.73 553.22 520.83 549.00 C 537.49 548.94 554.14 549.22 570.79 549.02 C 570.79 544.95 570.83 540.88 570.93 536.82 C 585.00 536.54 599.08 536.78 613.16 536.88 C 613.26 532.95 613.30 529.03 613.31 525.11 Z" />
<path fill="#060a08" opacity="1.00" d=" M 157.92 678.81 C 164.98 679.14 172.05 679.07 179.12 679.16 C 179.18 683.46 179.06 687.75 179.12 692.05 C 172.07 692.63 165.00 692.30 157.94 692.29 C 157.91 687.80 157.97 683.30 157.92 678.81 Z" />
<path fill="#060a08" opacity="1.00" d=" M 180.06 692.81 C 187.59 692.77 195.12 692.40 202.65 692.94 C 202.73 697.24 202.81 701.54 202.91 705.85 C 195.16 705.91 187.42 705.86 179.67 705.88 C 179.56 701.52 179.49 697.14 180.06 692.81 Z" />
<path fill="#060a08" opacity="1.00" d=" M 202.93 706.78 C 210.98 706.59 219.04 706.46 227.09 706.81 C 227.25 711.14 227.37 715.47 227.46 719.81 C 234.37 720.17 241.29 720.07 248.21 720.07 C 248.36 724.44 248.37 728.83 248.16 733.21 C 241.25 733.20 234.33 733.41 227.42 733.02 C 227.49 728.59 227.50 724.15 227.41 719.72 C 219.31 719.67 211.21 719.69 203.11 719.71 C 202.97 715.40 202.93 711.09 202.93 706.78 Z" />
<path fill="#060a08" opacity="1.00" d=" M 677.42 720.20 C 692.99 719.92 708.57 720.60 724.14 720.08 C 724.54 724.49 724.46 728.92 724.38 733.34 C 708.65 733.39 692.93 733.36 677.21 733.27 C 677.21 737.71 677.21 742.15 677.05 746.59 C 660.32 746.73 643.56 746.32 626.85 746.95 C 626.17 751.19 626.61 755.49 626.60 759.77 C 609.64 759.88 592.67 759.74 575.71 759.89 C 575.71 755.57 575.77 751.25 575.91 746.93 C 592.77 746.41 609.66 747.45 626.50 746.57 C 627.00 742.18 626.92 737.77 627.18 733.38 C 643.79 733.23 660.41 733.84 677.00 733.11 C 677.19 728.81 677.33 724.50 677.42 720.20 Z" />
<path fill="#060a08" opacity="1.00" d=" M 248.95 733.22 C 256.60 733.38 264.25 733.30 271.90 733.32 C 272.03 737.70 272.04 742.09 271.87 746.47 C 264.15 746.39 256.42 746.57 248.70 746.37 C 248.62 741.98 248.55 737.59 248.95 733.22 Z" />
<path fill="#060a08" opacity="1.00" d=" M 273.02 746.53 C 279.87 746.90 286.75 746.61 293.61 747.00 C 293.63 751.19 293.35 755.47 294.41 759.58 C 301.12 760.75 307.98 759.85 314.76 760.15 C 314.69 764.48 314.57 768.82 314.25 773.15 C 307.49 773.02 300.72 773.28 293.96 773.18 C 293.89 768.70 293.88 764.23 293.86 759.77 C 286.83 759.75 279.79 759.81 272.76 759.78 C 272.56 755.36 272.44 750.92 273.02 746.53 Z" />
<path fill="#060a08" opacity="1.00" d=" M 526.49 760.21 C 542.89 759.80 559.31 760.50 575.71 759.89 C 575.73 764.29 575.73 768.70 575.73 773.12 C 559.38 773.28 543.02 773.23 526.67 773.20 C 526.58 777.51 526.58 781.81 526.65 786.13 C 509.33 786.48 492.00 786.27 474.67 786.29 C 474.49 790.71 474.50 795.13 474.58 799.56 C 457.36 799.55 440.14 799.47 422.93 799.65 C 422.86 803.99 422.86 808.34 422.83 812.69 C 400.86 812.70 378.89 812.67 356.92 812.74 C 356.82 808.35 356.81 803.97 356.85 799.59 C 350.32 799.53 343.79 799.58 337.26 799.68 C 337.27 795.21 337.30 790.73 337.28 786.27 C 329.77 786.34 322.25 786.35 314.73 786.30 C 314.65 781.91 314.61 777.53 315.02 773.16 C 322.22 773.35 329.41 773.26 336.61 773.31 C 336.71 777.42 336.57 781.60 337.47 785.64 C 343.57 787.49 350.06 786.30 356.29 785.94 C 356.46 790.38 356.64 794.82 356.81 799.27 C 378.88 799.51 400.95 799.56 423.02 799.26 C 423.11 794.95 423.20 790.65 423.29 786.34 C 440.29 786.35 457.29 786.44 474.29 786.36 C 474.58 782.00 474.79 777.65 475.02 773.30 C 492.11 773.09 509.20 773.54 526.29 773.15 C 526.42 768.83 526.49 764.52 526.49 760.21 Z" />
</g>
<g id="#54cf3eff">
<path fill="#54cf3e" opacity="1.00" d=" M 423.19 59.05 C 444.81 59.30 466.44 59.36 488.06 59.10 C 488.26 59.32 488.67 59.76 488.88 59.98 C 488.80 77.57 488.57 95.17 488.94 112.77 C 493.22 112.86 497.50 112.99 501.78 113.17 C 502.08 131.14 501.63 149.12 501.99 167.09 C 506.35 167.22 510.70 167.29 515.06 167.37 C 515.63 177.57 515.25 187.79 515.37 198.00 C 515.36 206.61 515.54 215.22 515.13 223.83 C 510.53 224.03 505.93 223.97 501.34 223.79 C 501.15 205.16 501.71 186.53 501.13 167.92 C 496.91 167.73 492.69 167.56 488.48 167.43 C 487.92 149.41 488.85 131.36 488.07 113.35 C 483.82 113.18 479.57 112.99 475.33 112.78 C 475.13 99.58 475.74 86.36 475.12 73.16 C 465.11 73.06 455.10 73.04 445.10 73.14 C 444.97 77.46 444.85 81.78 444.75 86.10 C 424.30 86.72 403.84 86.11 383.39 86.33 C 383.28 90.79 383.12 95.25 382.92 99.71 C 365.03 100.05 347.14 99.32 329.26 99.95 C 329.18 104.33 329.09 108.70 328.98 113.07 C 310.33 113.59 291.67 113.10 273.02 113.28 C 272.82 117.74 272.67 122.20 272.57 126.66 C 255.68 126.87 238.78 126.31 221.90 126.88 C 221.76 131.15 221.65 135.42 221.58 139.70 C 202.37 139.98 183.16 139.53 163.96 139.99 C 163.81 144.22 163.68 148.44 163.58 152.67 C 152.49 152.98 141.39 152.18 130.31 152.99 C 130.31 156.91 130.32 160.84 130.36 164.76 C 130.39 171.22 130.18 177.68 129.97 184.13 C 125.93 184.19 121.88 184.18 117.84 184.09 C 116.80 173.43 117.21 162.69 117.72 152.01 C 117.92 147.99 117.84 143.97 117.98 139.95 C 118.23 139.77 118.72 139.39 118.97 139.21 C 127.40 139.19 135.83 139.65 144.26 139.16 C 144.37 134.86 144.37 130.55 144.17 126.25 L 144.98 126.22 C 164.18 125.70 183.39 126.28 202.59 125.86 C 202.71 121.60 202.55 117.31 203.04 113.07 C 210.33 112.28 217.68 112.68 225.00 112.64 C 235.65 112.59 246.29 112.73 256.94 112.68 C 257.03 108.44 256.96 104.19 257.07 99.95 C 257.27 99.74 257.67 99.32 257.87 99.11 C 275.97 99.12 294.09 99.62 312.20 99.16 C 312.28 94.80 312.27 90.44 312.08 86.08 L 312.92 86.02 C 330.78 85.18 348.68 86.11 366.56 85.76 C 366.53 81.60 366.24 77.36 367.26 73.28 C 372.74 72.01 378.42 72.69 384.00 72.63 C 396.90 72.65 409.80 72.67 422.70 72.66 C 422.80 68.42 422.91 64.17 423.14 59.93 L 423.19 59.05 Z" />
<path fill="#54cf3e" opacity="1.00" d=" M 128.13 186.92 C 132.40 186.63 136.68 186.61 140.96 186.86 C 141.38 202.60 141.08 218.34 141.01 234.09 C 144.67 234.24 148.33 234.34 151.99 234.38 C 152.72 250.57 152.06 266.79 152.25 283.00 C 154.38 283.17 156.52 283.34 158.66 283.51 C 159.10 305.00 158.80 326.50 158.88 347.99 C 154.34 348.27 149.78 348.23 145.25 347.88 C 145.11 327.41 145.34 306.93 145.18 286.46 C 142.56 286.54 139.95 286.61 137.33 286.68 C 137.02 270.57 137.81 254.43 137.05 238.33 C 133.87 237.65 130.72 236.82 127.64 235.79 C 128.31 219.51 127.55 203.21 128.13 186.92 Z" />
<path fill="#54cf3e" opacity="1.00" d=" M 515.13 223.83 C 519.45 223.63 523.78 223.69 528.10 223.90 C 528.57 236.55 528.51 249.22 528.19 261.87 C 523.65 261.85 519.12 261.77 514.59 261.55 C 515.28 248.98 514.59 236.40 515.13 223.83 Z" />
<path fill="#54cf3e" opacity="1.00" d=" M 156.92 351.01 C 161.29 350.90 165.67 350.92 170.04 351.07 C 170.60 362.78 169.89 374.51 170.29 386.23 C 170.15 393.68 170.20 401.13 170.37 408.58 C 181.07 408.74 191.78 408.80 202.48 408.53 C 202.59 403.98 202.74 399.42 202.90 394.87 C 217.80 394.31 232.71 394.89 247.61 394.67 C 247.66 390.07 247.75 385.48 247.89 380.88 C 264.14 380.32 280.41 380.89 296.67 380.68 C 296.72 376.10 296.81 371.52 296.93 366.94 C 312.02 366.56 327.13 366.68 342.22 366.86 C 342.44 371.61 342.44 376.37 342.21 381.12 C 330.91 381.57 319.60 381.08 308.29 381.27 C 308.22 385.87 308.12 390.47 308.00 395.07 C 291.02 395.38 274.02 394.82 257.04 395.17 C 256.87 399.68 256.72 404.20 256.61 408.72 C 241.18 408.93 225.75 408.43 210.32 408.97 C 210.27 413.65 210.17 418.33 210.03 423.01 C 200.08 423.38 190.13 422.86 180.18 423.18 C 180.10 424.39 180.03 425.61 179.96 426.84 L 179.02 426.84 C 178.87 425.68 178.72 424.52 178.58 423.37 C 171.52 423.09 164.45 423.15 157.44 423.97 C 156.47 411.34 157.06 398.66 156.88 386.00 C 157.04 374.34 156.43 362.67 156.92 351.01 Z" />
<path fill="#54cf3e" opacity="1.00" d=" M 640.09 380.78 C 644.00 380.61 647.95 380.32 651.85 380.90 C 653.56 385.33 652.77 390.23 653.04 394.87 C 661.99 395.11 670.96 394.62 679.91 395.12 C 680.12 399.79 680.26 404.45 680.32 409.12 C 685.43 409.39 690.56 409.42 695.67 409.05 L 695.68 409.86 C 695.70 414.52 695.77 419.17 695.94 423.83 C 705.31 424.14 714.69 423.61 724.06 424.12 C 724.39 429.09 724.44 434.08 724.10 439.06 C 714.72 439.43 705.34 439.57 695.96 439.12 C 695.78 434.23 695.63 429.35 695.52 424.46 C 690.39 424.35 685.27 424.19 680.14 423.99 C 680.04 419.40 679.93 414.80 679.83 410.21 C 670.91 409.84 661.98 410.29 653.05 409.92 C 652.92 405.23 652.81 400.55 652.74 395.86 C 648.47 395.70 644.20 395.68 639.94 395.81 C 639.89 390.80 639.92 385.78 640.09 380.78 Z" />
<path fill="#54cf3e" opacity="1.00" d=" M 724.10 439.06 C 732.14 438.86 740.18 438.67 748.23 439.04 L 749.09 439.08 C 748.29 460.04 748.80 481.03 748.67 502.00 C 748.66 534.65 748.60 567.30 748.72 599.95 C 744.55 600.21 740.39 600.37 736.22 600.46 C 735.97 623.64 736.23 646.82 736.13 670.00 C 735.94 682.26 736.57 694.54 735.90 706.79 C 732.22 707.01 728.54 707.22 724.86 707.42 C 724.71 711.62 724.70 715.84 724.91 720.05 L 724.14 720.08 C 708.57 720.60 692.99 719.92 677.42 720.20 C 677.33 724.50 677.19 728.81 677.00 733.11 C 660.41 733.84 643.79 733.23 627.18 733.38 C 626.92 737.77 627.00 742.18 626.50 746.57 C 609.66 747.45 592.77 746.41 575.91 746.93 C 575.77 751.25 575.71 755.57 575.71 759.89 C 559.31 760.50 542.89 759.80 526.49 760.21 C 526.49 764.52 526.42 768.83 526.29 773.15 C 509.20 773.54 492.11 773.09 475.02 773.30 C 474.79 777.65 474.58 782.00 474.29 786.36 C 457.29 786.44 440.29 786.35 423.29 786.34 C 423.20 790.65 423.11 794.95 423.02 799.26 C 400.95 799.56 378.88 799.51 356.81 799.27 C 356.64 794.82 356.46 790.38 356.29 785.94 C 356.16 781.97 356.21 777.99 356.27 774.03 C 362.74 773.68 369.22 773.61 375.71 773.66 C 375.80 768.93 375.74 764.21 375.52 759.49 C 369.32 759.24 363.08 760.08 356.92 759.20 C 355.27 753.40 356.28 747.30 356.45 741.38 C 362.86 741.19 369.27 741.07 375.68 740.88 C 375.78 736.30 375.78 731.71 375.68 727.13 C 369.23 726.97 362.78 726.91 356.33 726.81 C 356.17 721.20 356.16 715.58 356.31 709.97 C 362.76 709.62 369.22 709.58 375.67 709.67 C 375.78 705.17 375.78 700.66 375.69 696.16 C 369.21 696.01 362.74 695.94 356.27 695.82 C 356.06 689.88 356.07 683.94 356.29 678.00 C 362.74 677.69 369.20 677.64 375.66 677.70 C 375.79 672.82 375.80 667.93 375.67 663.06 C 369.26 662.88 362.86 662.80 356.45 662.64 C 356.17 656.45 356.13 650.25 356.31 644.06 C 362.77 643.72 369.23 643.63 375.70 643.66 C 375.80 638.92 375.75 634.18 375.54 629.44 C 369.14 629.42 362.74 629.32 356.35 629.01 C 356.19 623.01 356.19 617.01 356.35 611.02 C 362.78 610.77 369.22 610.73 375.67 610.75 C 375.79 605.94 375.79 601.14 375.66 596.34 C 369.41 596.33 363.16 596.24 356.92 596.02 C 356.44 589.73 356.44 583.41 356.94 577.12 C 363.19 576.98 369.45 576.87 375.71 576.74 C 375.71 569.57 375.49 562.40 375.15 555.24 C 378.10 555.15 381.05 555.03 384.00 554.92 C 384.16 550.93 384.31 546.95 384.43 542.97 C 401.59 542.45 418.77 543.29 435.93 542.90 C 436.12 538.99 436.29 535.08 436.45 531.17 C 453.33 530.61 470.23 531.47 487.12 530.82 C 487.47 526.68 487.66 522.52 487.72 518.37 C 501.73 518.13 515.74 518.34 529.76 518.52 C 529.99 514.17 530.26 509.82 530.57 505.47 C 547.32 505.51 564.08 505.83 580.84 505.70 C 581.10 501.61 581.36 497.52 581.59 493.43 C 597.19 492.90 612.81 494.06 628.39 493.09 C 628.57 489.03 628.78 484.96 629.00 480.91 C 644.87 480.32 660.76 481.11 676.64 480.65 C 676.80 476.45 676.99 472.25 677.19 468.06 C 692.82 467.68 708.46 468.31 724.09 467.90 C 724.26 463.22 724.28 458.54 724.08 453.87 C 723.86 448.93 723.85 443.99 724.10 439.06 M 613.31 525.11 C 613.30 529.03 613.26 532.95 613.16 536.88 C 599.08 536.78 585.00 536.54 570.93 536.82 C 570.83 540.88 570.79 544.95 570.79 549.02 C 554.14 549.22 537.49 548.94 520.83 549.00 C 520.73 553.22 520.68 557.44 520.67 561.66 C 510.17 561.65 499.66 561.30 489.17 561.75 C 489.07 574.40 489.07 587.06 489.27 599.72 C 499.46 599.79 509.65 599.75 519.84 599.79 C 519.90 595.94 519.97 592.10 520.07 588.27 C 530.99 588.22 541.91 588.54 552.82 588.18 C 552.83 584.15 552.86 580.12 552.93 576.10 C 558.90 576.00 564.87 576.02 570.84 576.14 C 570.80 584.81 570.81 593.49 570.92 602.17 C 565.32 602.32 559.71 602.29 554.11 602.20 C 553.78 610.55 554.18 618.91 554.00 627.27 C 548.43 627.44 542.86 627.41 537.30 627.30 C 537.17 635.53 537.51 643.75 537.21 651.97 C 531.77 651.91 526.33 651.88 520.88 651.94 C 520.60 660.03 520.89 668.12 520.87 676.22 C 515.55 676.38 510.23 676.35 504.92 676.25 C 504.43 684.13 504.74 692.02 504.72 699.91 C 499.55 700.06 494.38 700.11 489.22 700.15 C 489.20 712.78 489.13 725.41 489.23 738.04 C 502.19 738.37 515.17 738.32 528.15 738.21 C 528.23 734.57 528.29 730.93 528.33 727.29 C 541.57 727.20 554.82 727.49 568.07 727.19 C 568.13 723.57 568.18 719.95 568.26 716.34 C 583.07 716.34 597.89 716.65 612.70 716.24 C 612.73 712.59 612.79 708.95 612.94 705.31 C 621.99 705.28 631.03 705.59 640.08 705.24 C 640.25 695.59 640.31 685.94 639.88 676.31 C 621.30 676.41 602.72 676.35 584.14 676.30 C 584.07 681.12 583.99 685.94 583.92 690.76 C 573.64 690.69 563.36 690.69 553.08 690.70 C 552.75 685.89 552.73 681.07 553.01 676.26 C 557.98 676.33 562.95 676.32 567.92 676.17 C 568.01 668.05 567.67 659.93 567.93 651.81 C 572.99 651.74 578.06 651.75 583.14 651.81 C 583.53 643.64 583.14 635.47 583.28 627.31 C 588.27 627.42 593.27 627.42 598.27 627.26 C 598.41 622.95 598.44 618.64 598.37 614.33 C 603.19 614.42 608.01 614.40 612.82 614.21 C 612.89 605.58 612.35 596.95 612.95 588.33 C 617.39 588.39 621.84 588.35 626.29 588.23 C 626.38 584.20 626.39 580.17 626.35 576.14 C 630.91 576.04 635.48 576.01 640.06 576.02 C 640.17 559.05 640.24 542.07 640.03 525.10 C 631.12 525.03 622.22 524.95 613.31 525.11 Z" />
<path fill="#54cf3e" opacity="1.00" d=" M 228.41 513.46 C 233.76 513.12 239.13 513.07 244.48 513.34 C 244.46 514.92 244.44 516.50 244.41 518.09 C 244.13 528.38 244.55 538.67 244.15 548.96 C 244.01 553.42 244.02 557.89 244.13 562.36 C 246.35 562.49 248.58 562.64 250.81 562.79 C 251.41 564.14 252.02 565.49 252.63 566.85 C 254.31 566.69 256.00 566.53 257.69 566.34 C 258.08 571.14 258.32 575.95 258.46 580.77 C 264.62 580.72 270.91 581.08 276.67 583.51 C 276.95 581.17 277.23 578.84 277.51 576.51 C 280.94 576.35 284.36 576.17 287.78 575.99 C 288.00 565.01 287.76 554.03 287.87 543.06 C 290.71 543.13 293.55 543.23 296.40 543.34 C 296.72 545.09 297.06 546.84 297.40 548.60 C 300.93 548.46 304.46 548.31 308.00 548.17 C 308.46 553.70 308.45 559.26 307.73 564.77 C 306.59 573.04 307.62 581.40 306.96 589.71 C 300.72 589.76 294.49 589.63 288.26 589.92 C 288.21 593.55 288.13 597.19 288.02 600.83 C 279.94 600.56 271.73 601.61 263.73 600.37 C 260.86 597.71 259.10 594.12 257.21 590.75 C 255.60 590.39 253.99 590.03 252.38 589.68 C 252.22 587.16 252.07 584.64 251.92 582.12 C 249.08 581.97 246.25 581.82 243.42 581.67 C 243.32 578.49 243.20 575.31 243.06 572.14 C 240.51 571.90 237.96 571.67 235.40 571.44 C 235.32 565.76 235.31 560.09 235.02 554.42 C 232.74 554.23 230.47 554.04 228.20 553.85 C 228.17 540.39 227.92 526.92 228.41 513.46 Z" />
<path fill="#54cf3e" opacity="1.00" d=" M 258.14 527.99 C 261.86 527.15 265.67 527.63 268.58 530.26 C 270.05 530.58 271.53 530.88 273.01 531.20 C 273.02 538.60 272.86 545.99 272.92 553.40 C 268.86 553.77 264.86 552.75 262.21 549.49 C 260.78 549.28 259.36 549.07 257.94 548.93 C 257.53 541.96 257.40 534.95 258.14 527.99 Z" />
</g>
<g id="#272727ff">
<path fill="#272727" opacity="1.00" d=" M 488.88 59.98 C 493.13 59.51 497.41 59.62 501.67 59.86 C 501.72 77.56 501.54 95.26 501.86 112.96 C 506.14 113.16 510.42 113.19 514.70 113.20 C 514.93 131.25 514.49 149.32 515.06 167.37 C 510.70 167.29 506.35 167.22 501.99 167.09 C 501.63 149.12 502.08 131.14 501.78 113.17 C 497.50 112.99 493.22 112.86 488.94 112.77 C 488.57 95.17 488.80 77.57 488.88 59.98 Z" />
<path fill="#272727" opacity="1.00" d=" M 411.05 223.93 L 411.88 224.23 C 412.07 228.42 411.97 232.62 411.95 236.81 C 411.91 241.15 412.00 245.49 412.13 249.83 C 416.51 249.77 420.90 249.60 425.26 249.12 L 425.26 250.00 C 425.29 257.86 425.10 265.72 425.39 273.57 C 443.92 274.00 462.46 273.74 481.00 273.99 C 508.45 274.11 535.91 274.58 563.36 274.22 C 563.50 270.44 563.45 266.67 563.26 262.90 C 555.99 262.43 548.70 262.86 541.42 262.67 L 541.34 261.83 C 548.76 262.19 556.19 261.89 563.60 262.42 C 567.41 262.69 571.24 262.87 575.07 262.99 C 575.17 258.61 575.18 254.23 574.97 249.86 L 575.79 249.84 C 588.85 249.41 601.93 249.90 615.00 249.56 C 618.86 249.53 622.81 249.36 626.58 250.41 C 628.44 258.45 626.82 266.78 627.25 274.94 C 631.58 275.08 635.91 275.12 640.24 274.94 L 641.14 274.90 C 640.70 292.35 640.91 309.80 640.99 327.25 L 640.04 327.22 C 636.00 327.07 631.95 327.11 627.92 327.20 C 627.22 354.45 627.97 381.73 627.57 409.00 C 627.43 414.01 627.72 419.05 628.65 423.99 C 628.23 423.99 627.41 423.99 626.99 423.99 C 622.38 423.94 617.77 423.96 613.16 424.09 C 613.04 428.43 612.94 432.78 613.00 437.12 C 613.17 443.53 613.18 449.96 612.52 456.34 C 612.33 452.99 612.18 449.64 612.03 446.29 C 607.75 446.21 603.48 446.20 599.21 446.26 C 599.04 449.53 598.86 452.80 598.81 456.08 C 598.80 456.54 598.80 457.45 598.80 457.91 C 594.20 457.65 589.59 457.66 584.99 457.84 C 585.00 460.84 585.02 463.85 585.05 466.86 C 589.62 466.99 594.20 467.14 598.78 467.30 C 598.90 470.99 599.01 474.68 599.08 478.38 C 593.15 478.34 587.22 478.10 581.29 478.24 L 581.19 479.08 C 580.83 483.00 580.82 486.94 580.77 490.87 C 563.78 491.13 546.79 490.42 529.80 490.86 C 529.69 494.90 529.62 498.93 529.58 502.97 C 513.36 503.66 497.12 502.71 480.89 503.12 C 480.79 507.44 480.73 511.75 480.69 516.07 C 465.42 516.50 450.15 515.87 434.89 516.10 C 434.78 520.06 434.70 524.03 434.64 527.99 C 427.04 528.29 419.44 528.19 411.85 528.02 C 411.55 522.72 411.58 517.41 411.92 512.12 C 415.42 512.07 418.93 511.99 422.43 511.87 C 422.98 506.56 423.52 501.25 424.06 495.94 C 428.92 495.73 433.79 495.61 438.66 495.58 C 438.77 490.85 438.77 486.12 438.66 481.40 C 433.41 481.39 428.16 481.29 422.92 481.10 C 422.76 476.53 422.63 471.95 422.56 467.38 C 415.49 467.23 408.42 467.24 401.35 467.38 C 401.22 472.11 401.22 476.84 401.34 481.58 C 405.97 481.63 410.60 481.75 415.23 481.91 C 415.34 485.96 415.33 490.01 415.22 494.07 C 410.63 494.20 406.04 494.31 401.46 494.38 C 401.35 498.29 401.21 502.21 401.06 506.12 C 395.17 506.32 389.28 506.40 383.39 506.35 C 383.16 513.69 382.86 521.10 384.25 528.36 C 384.79 532.14 384.82 535.97 384.79 539.79 C 375.64 540.10 366.48 540.20 357.33 539.90 C 357.29 535.25 357.23 530.60 357.13 525.96 C 350.48 525.95 343.84 526.04 337.19 525.96 C 337.11 521.35 337.09 516.73 337.10 512.12 C 338.78 512.22 340.45 512.34 342.13 512.47 C 342.48 503.29 342.61 494.09 342.01 484.91 C 339.92 484.68 337.84 484.45 335.74 484.33 C 337.87 484.28 339.99 484.18 342.12 484.09 C 342.22 478.96 342.40 473.83 342.67 468.70 C 342.58 473.87 342.65 479.04 342.86 484.20 C 347.28 484.38 351.71 484.38 356.14 484.22 C 356.33 479.09 356.40 473.96 356.30 468.84 C 356.23 463.71 356.05 458.58 356.34 453.46 L 357.19 453.41 C 356.50 458.51 356.53 463.66 356.88 468.79 C 361.11 468.82 365.33 468.77 369.56 468.63 C 369.76 463.76 369.82 458.88 369.72 454.00 C 366.12 453.75 362.51 453.50 358.90 453.38 C 362.32 453.29 365.74 453.17 369.16 453.05 C 369.49 447.70 369.51 442.33 369.16 436.98 C 364.88 436.87 360.61 436.78 356.33 436.72 C 356.21 426.21 356.60 415.69 356.10 405.19 C 355.58 384.78 356.25 364.36 355.85 343.95 C 353.17 343.70 350.48 343.42 347.79 343.31 C 350.85 343.32 353.92 343.30 356.98 343.32 C 361.23 343.35 365.47 343.25 369.71 343.06 C 369.84 334.99 369.88 326.93 369.78 318.86 C 365.54 318.73 361.29 318.70 357.06 318.86 L 356.17 318.89 C 356.80 314.23 357.00 309.54 357.02 304.85 C 352.61 304.67 348.20 304.66 343.80 304.83 C 343.62 309.47 343.65 314.12 344.05 318.76 L 343.24 318.67 C 343.11 314.07 343.23 309.47 343.14 304.87 C 342.92 288.29 343.02 271.71 343.20 255.13 C 347.81 255.03 352.43 254.91 357.04 254.81 C 357.40 248.65 357.29 242.48 357.06 236.32 L 357.05 235.41 C 362.98 236.41 369.00 236.51 375.00 236.33 C 387.08 236.03 399.17 236.70 411.24 235.98 C 411.31 231.96 411.27 227.94 411.05 223.93 M 370.40 253.33 C 370.35 257.18 370.24 261.03 370.05 264.88 C 366.01 265.02 361.97 265.14 357.92 265.20 C 357.61 278.36 357.72 291.54 357.93 304.70 C 366.51 304.69 375.09 304.77 383.67 304.72 C 383.61 300.14 383.67 295.57 383.84 291.00 C 388.77 290.95 393.71 290.92 398.64 290.88 C 398.65 286.85 398.72 282.82 398.85 278.79 C 403.13 278.65 407.41 278.59 411.69 278.64 C 411.82 274.12 411.84 269.61 411.75 265.09 C 407.59 265.02 403.44 264.87 399.29 264.72 C 399.03 260.92 398.84 257.12 398.73 253.32 C 389.29 253.37 379.85 253.38 370.40 253.33 M 585.12 265.19 C 585.00 273.74 585.22 282.29 585.19 290.84 C 589.75 290.83 594.32 290.91 598.88 291.07 C 598.96 295.89 599.08 300.70 599.15 305.52 C 603.63 305.34 608.11 305.36 612.59 305.54 C 612.76 309.92 612.90 314.31 613.06 318.69 C 617.59 318.77 622.13 318.75 626.68 318.66 C 626.78 309.12 626.40 299.57 626.89 290.04 C 627.14 285.29 627.13 280.53 626.97 275.78 C 622.44 275.62 617.92 275.57 613.40 275.65 C 613.34 272.07 613.24 268.49 613.12 264.91 C 603.79 264.58 594.46 265.29 585.12 265.19 M 430.23 348.96 C 430.26 359.33 430.32 369.70 430.29 380.07 C 435.08 380.30 439.88 380.32 444.67 380.17 C 444.59 399.54 444.43 418.91 444.78 438.28 C 449.68 438.38 454.57 438.45 459.47 438.54 C 459.56 443.59 459.63 448.64 459.93 453.68 C 487.63 453.62 515.33 453.64 543.04 453.70 C 543.34 448.79 543.40 443.88 543.30 438.96 C 548.17 438.68 553.06 438.63 557.94 438.74 C 558.40 428.50 558.03 418.24 558.19 407.99 C 558.07 398.99 558.50 389.97 557.88 380.98 C 562.50 381.37 567.14 381.35 571.77 381.16 C 571.75 370.43 571.77 359.70 571.82 348.97 C 572.26 345.32 568.36 342.91 565.08 343.32 C 558.57 343.51 551.99 342.79 545.53 343.64 C 540.82 346.51 543.06 352.84 542.88 357.34 C 543.47 357.34 544.64 357.34 545.23 357.34 C 544.63 357.38 543.43 357.47 542.83 357.51 C 542.90 360.31 542.96 363.11 543.02 365.90 C 538.35 365.64 533.67 365.58 529.00 365.64 C 505.93 365.79 482.85 365.39 459.79 365.81 C 459.61 370.50 459.58 375.21 459.79 379.91 L 458.92 379.94 C 459.58 372.18 459.67 364.36 458.82 356.61 L 459.62 356.62 C 459.43 353.01 459.95 349.32 459.16 345.78 C 457.85 343.74 455.46 342.68 453.07 342.79 C 447.05 342.78 441.02 342.61 435.01 342.90 C 431.96 342.95 429.91 346.11 430.23 348.96 M 356.94 405.25 C 356.43 415.55 356.54 425.88 356.88 436.19 C 360.98 436.42 365.10 436.40 369.21 436.09 C 369.65 425.88 369.14 415.65 369.52 405.43 C 365.33 405.17 361.13 405.12 356.94 405.25 M 369.92 436.25 C 369.50 441.91 369.51 447.59 369.76 453.27 C 374.37 453.89 379.05 453.83 383.64 453.03 C 383.80 447.52 383.75 442.00 383.45 436.49 C 378.94 436.21 374.43 436.14 369.92 436.25 M 383.87 453.84 C 383.55 458.57 383.55 463.32 383.88 468.05 C 388.62 468.27 393.37 468.25 398.12 468.00 C 398.46 463.29 398.46 458.55 398.14 453.84 C 393.39 453.54 388.62 453.54 383.87 453.84 Z" />
<path fill="#272727" opacity="1.00" d=" M 640.17 366.91 C 644.32 366.68 648.48 366.69 652.63 366.90 C 652.53 371.48 652.57 376.08 652.80 380.66 C 661.79 380.70 670.79 380.49 679.78 380.80 C 679.77 385.49 679.78 390.19 679.87 394.88 C 685.10 395.03 690.35 395.09 695.59 395.16 C 695.55 399.79 695.55 404.42 695.67 409.05 C 690.56 409.42 685.43 409.39 680.32 409.12 C 680.26 404.45 680.12 399.79 679.91 395.12 C 670.96 394.62 661.99 395.11 653.04 394.87 C 652.77 390.23 653.56 385.33 651.85 380.90 C 647.95 380.32 644.00 380.61 640.09 380.78 C 640.24 376.16 640.29 371.53 640.17 366.91 Z" />
<path fill="#272727" opacity="1.00" d=" M 695.68 409.86 C 705.19 409.39 714.73 409.74 724.25 409.74 C 724.35 414.45 724.37 419.16 724.32 423.88 C 732.35 424.24 740.38 423.98 748.42 424.07 C 748.64 429.06 748.73 434.06 748.23 439.04 C 740.18 438.67 732.14 438.86 724.10 439.06 C 724.44 434.08 724.39 429.09 724.06 424.12 C 714.69 423.61 705.31 424.14 695.94 423.83 C 695.77 419.17 695.70 414.52 695.68 409.86 Z" />
</g>
<g id="#2b7226ff">
<path fill="#2b7226" opacity="1.00" d=" M 445.10 73.14 C 455.10 73.04 465.11 73.06 475.12 73.16 C 475.74 86.36 475.13 99.58 475.33 112.78 C 479.57 112.99 483.82 113.18 488.07 113.35 C 488.85 131.36 487.92 149.41 488.48 167.43 C 492.69 167.56 496.91 167.73 501.13 167.92 C 501.71 186.53 501.15 205.16 501.34 223.79 C 505.93 223.97 510.53 224.03 515.13 223.83 C 514.59 236.40 515.28 248.98 514.59 261.55 C 503.35 261.16 492.10 261.47 480.86 261.35 C 480.50 256.31 480.19 251.27 479.89 246.22 C 476.35 246.06 472.82 245.90 469.29 245.74 C 469.05 232.30 469.96 218.84 468.93 205.42 C 465.75 205.46 462.57 205.49 459.39 205.53 C 458.68 187.79 459.57 170.02 458.99 152.28 C 455.46 152.03 451.94 151.77 448.41 151.51 C 448.22 138.70 449.39 125.86 448.10 113.07 C 430.88 112.84 413.63 112.79 396.40 113.13 C 396.32 117.39 396.21 121.65 396.06 125.92 C 378.46 126.32 360.86 125.70 343.26 126.14 C 343.17 130.43 343.06 134.73 342.95 139.03 C 327.37 139.54 311.79 139.05 296.21 139.25 C 296.06 143.40 295.91 147.55 295.77 151.69 C 279.63 151.99 263.48 151.20 247.35 151.97 C 247.18 155.32 247.01 158.68 246.83 162.03 C 231.96 162.62 217.08 161.78 202.20 162.28 C 202.05 166.21 201.89 170.13 201.74 174.06 C 186.91 174.66 172.06 174.05 157.21 174.33 C 156.99 177.80 156.76 181.27 156.54 184.75 C 148.03 184.99 139.52 184.94 131.02 184.72 C 130.67 178.07 130.48 171.42 130.36 164.76 C 130.32 160.84 130.31 156.91 130.31 152.99 C 141.39 152.18 152.49 152.98 163.58 152.67 C 163.68 148.44 163.81 144.22 163.96 139.99 C 183.16 139.53 202.37 139.98 221.58 139.70 C 221.65 135.42 221.76 131.15 221.90 126.88 C 238.78 126.31 255.68 126.87 272.57 126.66 C 272.67 122.20 272.82 117.74 273.02 113.28 C 291.67 113.10 310.33 113.59 328.98 113.07 C 329.09 108.70 329.18 104.33 329.26 99.95 C 347.14 99.32 365.03 100.05 382.92 99.71 C 383.12 95.25 383.28 90.79 383.39 86.33 C 403.84 86.11 424.30 86.72 444.75 86.10 C 444.85 81.78 444.97 77.46 445.10 73.14 Z" />
<path fill="#2b7226" opacity="1.00" d=" M 117.08 263.73 C 118.16 274.05 117.27 284.42 117.88 294.77 C 120.62 294.94 123.36 295.12 126.11 295.29 C 126.80 307.69 125.93 320.10 126.48 332.49 C 128.08 333.04 129.69 333.58 131.29 334.13 C 127.29 334.11 123.29 334.05 119.29 333.96 C 118.79 333.95 117.79 333.93 117.29 333.92 C 116.95 320.99 117.53 308.05 117.05 295.13 C 116.52 284.67 116.60 274.19 117.08 263.73 Z" />
<path fill="#2b7226" opacity="1.00" d=" M 356.01 339.00 C 356.28 333.91 356.55 328.83 356.80 323.74 C 356.70 330.27 357.00 336.79 356.98 343.32 C 353.92 343.30 350.85 343.32 347.79 343.31 C 346.17 343.27 344.56 343.26 342.96 343.26 C 342.23 354.16 342.85 365.09 342.70 376.01 C 342.74 385.73 342.36 395.46 342.85 405.18 C 347.26 405.31 351.68 405.33 356.10 405.19 C 356.60 415.69 356.21 426.21 356.33 436.72 C 360.61 436.78 364.88 436.87 369.16 436.98 C 369.51 442.33 369.49 447.70 369.16 453.05 C 365.74 453.17 362.32 453.29 358.90 453.38 C 358.47 453.39 357.62 453.41 357.19 453.41 L 356.34 453.46 C 356.05 458.58 356.23 463.71 356.30 468.84 C 351.75 468.69 347.21 468.65 342.67 468.70 C 342.40 473.83 342.22 478.96 342.12 484.09 C 339.99 484.18 337.87 484.28 335.74 484.33 C 333.59 484.30 331.44 484.30 329.30 484.30 C 329.12 493.48 328.77 502.69 329.68 511.85 C 324.80 511.78 319.92 511.79 315.05 511.75 C 314.90 506.93 314.79 502.12 314.70 497.30 C 307.87 497.39 301.03 497.44 294.20 497.18 C 294.15 492.47 294.08 487.76 294.00 483.05 C 287.01 482.99 280.01 483.08 273.02 482.97 C 272.94 478.32 272.88 473.68 272.84 469.03 C 264.87 468.92 256.91 469.18 248.95 468.96 C 248.86 464.30 248.81 459.65 248.78 455.00 C 241.84 454.86 234.90 454.95 227.95 454.96 C 227.85 450.32 227.78 445.69 227.73 441.06 C 219.56 440.86 211.38 441.25 203.21 440.97 C 203.15 436.28 203.08 431.60 203.00 426.92 C 195.32 426.69 187.64 426.87 179.96 426.84 C 180.03 425.61 180.10 424.39 180.18 423.18 C 190.13 422.86 200.08 423.38 210.03 423.01 C 210.17 418.33 210.27 413.65 210.32 408.97 C 225.75 408.43 241.18 408.93 256.61 408.72 C 256.72 404.20 256.87 399.68 257.04 395.17 C 274.02 394.82 291.02 395.38 308.00 395.07 C 308.12 390.47 308.22 385.87 308.29 381.27 C 319.60 381.08 330.91 381.57 342.21 381.12 C 342.44 376.37 342.44 371.61 342.22 366.86 C 327.13 366.68 312.02 366.56 296.93 366.94 C 296.81 371.52 296.72 376.10 296.67 380.68 C 280.41 380.89 264.14 380.32 247.89 380.88 C 247.75 385.48 247.66 390.07 247.61 394.67 C 232.71 394.89 217.80 394.31 202.90 394.87 C 202.74 399.42 202.59 403.98 202.48 408.53 C 191.78 408.80 181.07 408.74 170.37 408.58 C 170.20 401.13 170.15 393.68 170.29 386.23 C 170.44 384.20 170.71 382.18 170.96 380.16 C 187.62 379.87 204.29 380.49 220.95 380.04 C 221.04 375.43 221.13 370.82 221.20 366.22 C 238.40 366.02 255.62 366.68 272.82 366.08 C 272.92 361.48 273.04 356.89 273.17 352.30 C 289.62 352.27 306.08 352.36 322.53 352.41 C 322.63 347.90 322.77 343.39 322.94 338.88 C 333.96 338.25 344.99 339.18 356.01 339.00 Z" />
<path fill="#2b7226" opacity="1.00" d=" M 639.94 395.81 C 644.20 395.68 648.47 395.70 652.74 395.86 C 652.81 400.55 652.92 405.23 653.05 409.92 C 661.98 410.29 670.91 409.84 679.83 410.21 C 679.93 414.80 680.04 419.40 680.14 423.99 C 685.27 424.19 690.39 424.35 695.52 424.46 C 695.63 429.35 695.78 434.23 695.96 439.12 C 705.34 439.57 714.72 439.43 724.10 439.06 C 723.85 443.99 723.86 448.93 724.08 453.87 C 707.79 453.56 691.49 453.50 675.20 453.84 C 675.22 457.92 675.22 462.01 675.18 466.10 C 659.44 466.68 643.70 466.00 627.97 466.18 C 627.83 470.34 627.71 474.51 627.62 478.67 C 612.14 479.07 596.64 478.20 581.19 479.08 L 581.29 478.24 C 587.22 478.10 593.15 478.34 599.08 478.38 C 603.64 478.44 608.20 478.33 612.75 478.12 C 612.77 474.40 612.77 470.68 612.75 466.96 C 608.18 466.78 603.62 466.66 599.05 466.62 C 598.94 463.72 598.82 460.81 598.80 457.91 C 598.80 457.45 598.80 456.54 598.81 456.08 C 603.37 456.31 607.94 456.37 612.52 456.34 C 613.18 449.96 613.17 443.53 613.00 437.12 C 617.70 437.18 622.40 437.09 627.10 436.90 C 627.21 432.59 627.21 428.29 626.99 423.99 C 627.41 423.99 628.23 423.99 628.65 423.99 C 632.38 423.96 636.12 423.82 639.86 423.68 C 640.22 414.40 639.99 405.10 639.94 395.81 Z" />
<path fill="#2b7226" opacity="1.00" d=" M 244.44 517.43 C 249.21 516.83 254.02 517.14 258.81 517.30 C 258.71 520.87 258.50 524.44 258.14 527.99 C 257.40 534.95 257.53 541.96 257.94 548.93 C 253.35 548.61 248.74 548.83 244.15 548.96 C 244.55 538.67 244.13 528.38 244.41 518.09 L 244.44 517.43 Z" />
<path fill="#2b7226" opacity="1.00" d=" M 273.01 531.20 C 277.88 530.83 282.77 530.86 287.64 531.15 C 287.76 535.12 287.87 539.08 287.87 543.06 C 287.76 554.03 288.00 565.01 287.78 575.99 C 284.36 576.17 280.94 576.35 277.51 576.51 C 277.23 578.84 276.95 581.17 276.67 583.51 C 270.91 581.08 264.62 580.72 258.46 580.77 C 258.32 575.95 258.08 571.14 257.69 566.34 C 262.71 565.65 267.76 565.08 272.83 564.94 C 272.89 561.09 272.94 557.24 272.92 553.40 C 272.86 545.99 273.02 538.60 273.01 531.20 Z" />
</g>
<g id="#39a330ff">
<path fill="#39a330" opacity="1.00" d=" M 396.40 113.13 C 413.63 112.79 430.88 112.84 448.10 113.07 C 449.39 125.86 448.22 138.70 448.41 151.51 C 451.94 151.77 455.46 152.03 458.99 152.28 C 459.57 170.02 458.68 187.79 459.39 205.53 C 462.57 205.49 465.75 205.46 468.93 205.42 C 469.96 218.84 469.05 232.30 469.29 245.74 C 472.82 245.90 476.35 246.06 479.89 246.22 C 480.19 251.27 480.50 256.31 480.86 261.35 C 466.60 261.33 452.33 261.64 438.08 261.17 C 437.96 257.40 437.84 253.62 437.73 249.84 C 433.58 249.76 429.42 249.78 425.26 250.00 L 425.26 249.12 C 425.20 245.02 425.08 240.92 424.95 236.82 C 420.62 236.70 416.28 236.69 411.95 236.81 C 411.97 232.62 412.07 228.42 411.88 224.23 L 411.05 223.93 C 404.05 223.22 397.01 223.70 390.00 223.62 C 379.09 223.72 368.17 223.30 357.27 223.82 C 357.15 227.68 357.03 231.54 357.05 235.41 L 357.06 236.32 C 352.48 236.27 347.91 236.31 343.34 236.37 C 343.36 242.32 343.31 248.27 343.14 254.22 C 338.55 254.34 333.95 254.39 329.35 254.40 C 329.38 271.16 329.25 287.92 329.32 304.68 C 333.92 304.76 338.53 304.81 343.14 304.87 C 343.23 309.47 343.11 314.07 343.24 318.67 L 344.05 318.76 C 348.08 319.06 352.13 318.99 356.17 318.89 L 357.06 318.86 C 356.96 320.48 356.86 322.11 356.80 323.74 C 356.55 328.83 356.28 333.91 356.01 339.00 C 344.99 339.18 333.96 338.25 322.94 338.88 C 322.77 343.39 322.63 347.90 322.53 352.41 C 306.08 352.36 289.62 352.27 273.17 352.30 C 273.04 356.89 272.92 361.48 272.82 366.08 C 255.62 366.68 238.40 366.02 221.20 366.22 C 221.13 370.82 221.04 375.43 220.95 380.04 C 204.29 380.49 187.62 379.87 170.96 380.16 C 170.71 382.18 170.44 384.20 170.29 386.23 C 169.89 374.51 170.60 362.78 170.04 351.07 C 165.67 350.92 161.29 350.90 156.92 351.01 C 156.43 362.67 157.04 374.34 156.88 386.00 C 157.06 398.66 156.47 411.34 157.44 423.97 L 157.49 424.86 C 153.35 424.87 149.21 424.83 145.07 424.77 C 144.24 414.29 144.95 403.79 144.69 393.30 C 140.62 393.25 136.47 393.47 132.48 392.48 C 131.71 391.15 131.69 389.56 131.58 388.08 C 131.40 370.10 132.15 352.09 131.29 334.13 C 129.69 333.58 128.08 333.04 126.48 332.49 C 125.93 320.10 126.80 307.69 126.11 295.29 C 123.36 295.12 120.62 294.94 117.88 294.77 C 117.27 284.42 118.16 274.05 117.08 263.73 C 116.74 254.61 117.10 245.48 116.59 236.36 C 112.45 236.39 108.31 236.44 104.19 236.80 L 104.13 236.08 C 103.26 224.41 103.87 212.69 103.69 201.00 C 103.89 184.93 103.25 168.84 104.03 152.79 L 104.10 151.96 C 108.63 152.20 113.18 152.20 117.72 152.01 C 117.21 162.69 116.80 173.43 117.84 184.09 C 121.88 184.18 125.93 184.19 129.97 184.13 C 130.18 177.68 130.39 171.22 130.36 164.76 C 130.48 171.42 130.67 178.07 131.02 184.72 C 139.52 184.94 148.03 184.99 156.54 184.75 C 156.76 181.27 156.99 177.80 157.21 174.33 C 172.06 174.05 186.91 174.66 201.74 174.06 C 201.89 170.13 202.05 166.21 202.20 162.28 C 217.08 161.78 231.96 162.62 246.83 162.03 C 247.01 158.68 247.18 155.32 247.35 151.97 C 263.48 151.20 279.63 151.99 295.77 151.69 C 295.91 147.55 296.06 143.40 296.21 139.25 C 311.79 139.05 327.37 139.54 342.95 139.03 C 343.06 134.73 343.17 130.43 343.26 126.14 C 360.86 125.70 378.46 126.32 396.06 125.92 C 396.21 121.65 396.32 117.39 396.40 113.13 M 128.13 186.92 C 127.55 203.21 128.31 219.51 127.64 235.79 C 130.72 236.82 133.87 237.65 137.05 238.33 C 137.81 254.43 137.02 270.57 137.33 286.68 C 139.95 286.61 142.56 286.54 145.18 286.46 C 145.34 306.93 145.11 327.41 145.25 347.88 C 149.78 348.23 154.34 348.27 158.88 347.99 C 158.80 326.50 159.10 305.00 158.66 283.51 C 156.52 283.34 154.38 283.17 152.25 283.00 C 152.06 266.79 152.72 250.57 151.99 234.38 C 148.33 234.34 144.67 234.24 141.01 234.09 C 141.08 218.34 141.38 202.60 140.96 186.86 C 136.68 186.61 132.40 186.63 128.13 186.92 Z" />
<path fill="#39a330" opacity="1.00" d=" M 157.58 426.81 C 164.72 426.59 171.87 426.58 179.02 426.84 C 179.03 431.86 179.09 436.88 179.19 441.91 C 187.02 442.17 194.86 441.91 202.69 442.07 C 202.76 446.64 202.87 451.20 203.02 455.77 C 211.04 455.88 219.06 455.59 227.08 455.90 C 227.25 460.47 227.40 465.04 227.50 469.62 C 234.30 469.78 241.10 469.76 247.90 469.91 C 248.03 474.51 248.16 479.11 248.28 483.71 C 256.22 483.81 264.17 483.52 272.11 483.89 C 272.26 488.55 272.35 493.22 272.39 497.89 C 279.46 498.12 286.53 498.06 293.61 498.18 C 293.65 502.84 293.75 507.49 293.90 512.15 C 300.76 512.34 307.62 512.32 314.48 512.45 C 314.58 517.25 314.74 522.05 314.93 526.84 C 322.15 526.81 329.38 526.64 336.60 526.98 C 336.64 531.63 336.74 536.28 336.90 540.92 C 343.47 540.96 350.03 540.97 356.60 541.15 C 356.65 545.81 356.75 550.47 356.89 555.14 C 362.98 555.38 369.07 555.44 375.15 555.24 C 375.49 562.40 375.71 569.57 375.71 576.74 C 369.45 576.87 363.19 576.98 356.94 577.12 C 356.44 583.41 356.44 589.73 356.92 596.02 C 363.16 596.24 369.41 596.33 375.66 596.34 C 375.79 601.14 375.79 605.94 375.67 610.75 C 369.22 610.73 362.78 610.77 356.35 611.02 C 356.19 617.01 356.19 623.01 356.35 629.01 C 362.74 629.32 369.14 629.42 375.54 629.44 C 375.75 634.18 375.80 638.92 375.70 643.66 C 369.23 643.63 362.77 643.72 356.31 644.06 C 356.13 650.25 356.17 656.45 356.45 662.64 C 362.86 662.80 369.26 662.88 375.67 663.06 C 375.80 667.93 375.79 672.82 375.66 677.70 C 369.20 677.64 362.74 677.69 356.29 678.00 C 356.07 683.94 356.06 689.88 356.27 695.82 C 362.74 695.94 369.21 696.01 375.69 696.16 C 375.78 700.66 375.78 705.17 375.67 709.67 C 369.22 709.58 362.76 709.62 356.31 709.97 C 356.16 715.58 356.17 721.20 356.33 726.81 C 362.78 726.91 369.23 726.97 375.68 727.13 C 375.78 731.71 375.78 736.30 375.68 740.88 C 369.27 741.07 362.86 741.19 356.45 741.38 C 356.28 747.30 355.27 753.40 356.92 759.20 C 363.08 760.08 369.32 759.24 375.52 759.49 C 375.74 764.21 375.80 768.93 375.71 773.66 C 369.22 773.61 362.74 773.68 356.27 774.03 C 356.21 777.99 356.16 781.97 356.29 785.94 C 350.06 786.30 343.57 787.49 337.47 785.64 C 336.57 781.60 336.71 777.42 336.61 773.31 C 329.41 773.26 322.22 773.35 315.02 773.16 L 314.25 773.15 C 314.57 768.82 314.69 764.48 314.76 760.15 C 307.98 759.85 301.12 760.75 294.41 759.58 C 293.35 755.47 293.63 751.19 293.61 747.00 C 286.75 746.61 279.87 746.90 273.02 746.53 C 272.73 746.52 272.16 746.49 271.87 746.47 C 272.04 742.09 272.03 737.70 271.90 733.32 C 264.25 733.30 256.60 733.38 248.95 733.22 L 248.16 733.21 C 248.37 728.83 248.36 724.44 248.21 720.07 C 241.29 720.07 234.37 720.17 227.46 719.81 C 227.37 715.47 227.25 711.14 227.09 706.81 C 219.04 706.46 210.98 706.59 202.93 706.78 L 202.91 705.85 C 202.81 701.54 202.73 697.24 202.65 692.94 C 195.12 692.40 187.59 692.77 180.06 692.81 C 179.82 692.62 179.35 692.24 179.12 692.05 C 179.06 687.75 179.18 683.46 179.12 679.16 C 172.05 679.07 164.98 679.14 157.92 678.81 C 157.24 653.22 157.79 627.60 157.63 602.00 C 157.60 543.60 157.69 485.21 157.58 426.81 M 228.41 513.46 C 227.92 526.92 228.17 540.39 228.20 553.85 C 230.47 554.04 232.74 554.23 235.02 554.42 C 235.31 560.09 235.32 565.76 235.40 571.44 C 237.96 571.67 240.51 571.90 243.06 572.14 C 243.20 575.31 243.32 578.49 243.42 581.67 C 246.25 581.82 249.08 581.97 251.92 582.12 C 252.07 584.64 252.22 587.16 252.38 589.68 C 253.99 590.03 255.60 590.39 257.21 590.75 C 259.10 594.12 260.86 597.71 263.73 600.37 C 271.73 601.61 279.94 600.56 288.02 600.83 C 288.13 597.19 288.21 593.55 288.26 589.92 C 294.49 589.63 300.72 589.76 306.96 589.71 C 307.62 581.40 306.59 573.04 307.73 564.77 C 308.45 559.26 308.46 553.70 308.00 548.17 C 304.46 548.31 300.93 548.46 297.40 548.60 C 297.06 546.84 296.72 545.09 296.40 543.34 C 293.55 543.23 290.71 543.13 287.87 543.06 C 287.87 539.08 287.76 535.12 287.64 531.15 C 282.77 530.86 277.88 530.83 273.01 531.20 C 271.53 530.88 270.05 530.58 268.58 530.26 C 265.67 527.63 261.86 527.15 258.14 527.99 C 258.50 524.44 258.71 520.87 258.81 517.30 C 254.02 517.14 249.21 516.83 244.44 517.43 L 244.41 518.09 C 244.44 516.50 244.46 514.92 244.48 513.34 C 239.13 513.07 233.76 513.12 228.41 513.46 M 164.90 625.10 C 164.51 630.43 164.51 635.79 164.88 641.13 C 170.16 641.46 175.46 641.41 180.73 640.96 C 180.86 635.70 180.85 630.44 180.71 625.19 C 175.44 624.95 170.17 624.91 164.90 625.10 M 179.93 651.15 C 179.50 656.38 179.50 661.65 179.90 666.90 C 184.85 667.08 189.81 667.08 194.77 666.89 C 194.85 661.67 194.81 656.47 194.67 651.26 C 189.76 651.04 184.84 651.01 179.93 651.15 M 325.83 731.02 C 325.49 736.34 325.49 741.67 325.85 746.99 C 331.27 747.24 336.71 747.24 342.14 747.00 C 342.49 741.67 342.51 736.32 342.16 730.99 C 336.72 730.76 331.27 730.77 325.83 731.02 Z" />
<path fill="#39a330" opacity="1.00" d=" M 244.15 548.96 C 248.74 548.83 253.35 548.61 257.94 548.93 C 259.36 549.07 260.78 549.28 262.21 549.49 C 264.86 552.75 268.86 553.77 272.92 553.40 C 272.94 557.24 272.89 561.09 272.83 564.94 C 267.76 565.08 262.71 565.65 257.69 566.34 C 256.00 566.53 254.31 566.69 252.63 566.85 C 252.02 565.49 251.41 564.14 250.81 562.79 C 248.58 562.64 246.35 562.49 244.13 562.36 C 244.02 557.89 244.01 553.42 244.15 548.96 Z" />
</g>
<g id="#996a3fff">
<path fill="#996a3f" opacity="1.00" d=" M 370.40 253.33 C 379.85 253.38 389.29 253.37 398.73 253.32 C 398.84 257.12 399.03 260.92 399.29 264.72 C 403.44 264.87 407.59 265.02 411.75 265.09 C 411.84 269.61 411.82 274.12 411.69 278.64 C 407.41 278.59 403.13 278.65 398.85 278.79 C 398.72 282.82 398.65 286.85 398.64 290.88 C 393.71 290.92 388.77 290.95 383.84 291.00 C 383.67 295.57 383.61 300.14 383.67 304.72 C 375.09 304.77 366.51 304.69 357.93 304.70 C 357.72 291.54 357.61 278.36 357.92 265.20 C 361.97 265.14 366.01 265.02 370.05 264.88 C 370.24 261.03 370.35 257.18 370.40 253.33 Z" />
<path fill="#996a3f" opacity="1.00" d=" M 585.12 265.19 C 594.46 265.29 603.79 264.58 613.12 264.91 C 613.24 268.49 613.34 272.07 613.40 275.65 C 617.92 275.57 622.44 275.62 626.97 275.78 C 627.13 280.53 627.14 285.29 626.89 290.04 C 626.40 299.57 626.78 309.12 626.68 318.66 C 622.13 318.75 617.59 318.77 613.06 318.69 C 612.90 314.31 612.76 309.92 612.59 305.54 C 608.11 305.36 603.63 305.34 599.15 305.52 C 599.08 300.70 598.96 295.89 598.88 291.07 C 594.32 290.91 589.75 290.83 585.19 290.84 C 585.22 282.29 585.00 273.74 585.12 265.19 Z" />
<path fill="#996a3f" opacity="1.00" d=" M 459.79 365.81 C 482.85 365.39 505.93 365.79 529.00 365.64 C 533.67 365.58 538.35 365.64 543.02 365.90 C 543.11 370.84 543.18 375.77 543.26 380.71 C 548.13 380.76 553.01 380.81 557.88 380.98 C 558.50 389.97 558.07 398.99 558.19 407.99 C 558.03 418.24 558.40 428.50 557.94 438.74 C 553.06 438.63 548.17 438.68 543.30 438.96 C 543.40 443.88 543.34 448.79 543.04 453.70 C 515.33 453.64 487.63 453.62 459.93 453.68 C 459.63 448.64 459.56 443.59 459.47 438.54 C 454.57 438.45 449.68 438.38 444.78 438.28 C 444.43 418.91 444.59 399.54 444.67 380.17 C 449.42 380.17 454.17 380.13 458.92 379.94 L 459.79 379.91 C 459.58 375.21 459.61 370.50 459.79 365.81 M 475.06 380.25 C 474.76 388.49 474.75 396.74 474.96 404.99 C 479.68 405.03 484.40 405.03 489.12 405.01 C 489.13 409.73 489.11 414.45 489.10 419.17 C 497.66 419.50 506.24 419.58 514.81 419.22 C 514.81 414.58 514.87 409.94 515.04 405.30 C 519.42 405.31 523.81 405.26 528.19 405.15 C 528.43 396.89 528.67 388.60 528.04 380.35 C 510.38 380.44 492.72 380.31 475.06 380.25 Z" />
</g>
<g id="#74df66ff">
<path fill="#74df66" opacity="1.00" d=" M 157.44 423.97 C 164.45 423.15 171.52 423.09 178.58 423.37 C 178.72 424.52 178.87 425.68 179.02 426.84 C 171.87 426.58 164.72 426.59 157.58 426.81 C 157.55 426.32 157.51 425.35 157.49 424.86 L 157.44 423.97 Z" />
<path fill="#74df66" opacity="1.00" d=" M 179.02 426.84 L 179.96 426.84 C 187.64 426.87 195.32 426.69 203.00 426.92 C 203.08 431.60 203.15 436.28 203.21 440.97 C 211.38 441.25 219.56 440.86 227.73 441.06 C 227.78 445.69 227.85 450.32 227.95 454.96 C 234.90 454.95 241.84 454.86 248.78 455.00 C 248.81 459.65 248.86 464.30 248.95 468.96 C 256.91 469.18 264.87 468.92 272.84 469.03 C 272.88 473.68 272.94 478.32 273.02 482.97 C 280.01 483.08 287.01 482.99 294.00 483.05 C 294.08 487.76 294.15 492.47 294.20 497.18 C 301.03 497.44 307.87 497.39 314.70 497.30 C 314.79 502.12 314.90 506.93 315.05 511.75 C 319.92 511.79 324.80 511.78 329.68 511.85 C 332.15 511.89 334.63 511.97 337.10 512.12 C 337.09 516.73 337.11 521.35 337.19 525.96 C 343.84 526.04 350.48 525.95 357.13 525.96 C 357.23 530.60 357.29 535.25 357.33 539.90 C 366.48 540.20 375.64 540.10 384.79 539.79 C 384.82 535.97 384.79 532.14 384.25 528.36 C 393.44 527.68 402.65 527.90 411.85 528.02 C 419.44 528.19 427.04 528.29 434.64 527.99 C 434.70 524.03 434.78 520.06 434.89 516.10 C 450.15 515.87 465.42 516.50 480.69 516.07 C 480.73 511.75 480.79 507.44 480.89 503.12 C 497.12 502.71 513.36 503.66 529.58 502.97 C 529.62 498.93 529.69 494.90 529.80 490.86 C 546.79 490.42 563.78 491.13 580.77 490.87 C 580.82 486.94 580.83 483.00 581.19 479.08 C 596.64 478.20 612.14 479.07 627.62 478.67 C 627.71 474.51 627.83 470.34 627.97 466.18 C 643.70 466.00 659.44 466.68 675.18 466.10 C 675.22 462.01 675.22 457.92 675.20 453.84 C 691.49 453.50 707.79 453.56 724.08 453.87 C 724.28 458.54 724.26 463.22 724.09 467.90 C 708.46 468.31 692.82 467.68 677.19 468.06 C 676.99 472.25 676.80 476.45 676.64 480.65 C 660.76 481.11 644.87 480.32 629.00 480.91 C 628.78 484.96 628.57 489.03 628.39 493.09 C 612.81 494.06 597.19 492.90 581.59 493.43 C 581.36 497.52 581.10 501.61 580.84 505.70 C 564.08 505.83 547.32 505.51 530.57 505.47 C 530.26 509.82 529.99 514.17 529.76 518.52 C 515.74 518.34 501.73 518.13 487.72 518.37 C 487.66 522.52 487.47 526.68 487.12 530.82 C 470.23 531.47 453.33 530.61 436.45 531.17 C 436.29 535.08 436.12 538.99 435.93 542.90 C 418.77 543.29 401.59 542.45 384.43 542.97 C 384.31 546.95 384.16 550.93 384.00 554.92 C 381.05 555.03 378.10 555.15 375.15 555.24 C 369.07 555.44 362.98 555.38 356.89 555.14 C 356.75 550.47 356.65 545.81 356.60 541.15 C 350.03 540.97 343.47 540.96 336.90 540.92 C 336.74 536.28 336.64 531.63 336.60 526.98 C 329.38 526.64 322.15 526.81 314.93 526.84 C 314.74 522.05 314.58 517.25 314.48 512.45 C 307.62 512.32 300.76 512.34 293.90 512.15 C 293.75 507.49 293.65 502.84 293.61 498.18 C 286.53 498.06 279.46 498.12 272.39 497.89 C 272.35 493.22 272.26 488.55 272.11 483.89 C 264.17 483.52 256.22 483.81 248.28 483.71 C 248.16 479.11 248.03 474.51 247.90 469.91 C 241.10 469.76 234.30 469.78 227.50 469.62 C 227.40 465.04 227.25 460.47 227.08 455.90 C 219.06 455.59 211.04 455.88 203.02 455.77 C 202.87 451.20 202.76 446.64 202.69 442.07 C 194.86 441.91 187.02 442.17 179.19 441.91 C 179.09 436.88 179.03 431.86 179.02 426.84 Z" />
<path fill="#74df66" opacity="1.00" d=" M 164.90 625.10 C 170.17 624.91 175.44 624.95 180.71 625.19 C 180.85 630.44 180.86 635.70 180.73 640.96 C 175.46 641.41 170.16 641.46 164.88 641.13 C 164.51 635.79 164.51 630.43 164.90 625.10 Z" />
<path fill="#74df66" opacity="1.00" d=" M 179.93 651.15 C 184.84 651.01 189.76 651.04 194.67 651.26 C 194.81 656.47 194.85 661.67 194.77 666.89 C 189.81 667.08 184.85 667.08 179.90 666.90 C 179.50 661.65 179.50 656.38 179.93 651.15 Z" />
<path fill="#74df66" opacity="1.00" d=" M 325.83 731.02 C 331.27 730.77 336.72 730.76 342.16 730.99 C 342.51 736.32 342.49 741.67 342.14 747.00 C 336.71 747.24 331.27 747.24 325.85 746.99 C 325.49 741.67 325.49 736.34 325.83 731.02 Z" />
</g>
</svg>
